<?xml version="1.0" encoding="utf-8"?>
<!-- Svg Vector Icons : http://www.onlinewebfonts.com/icon -->
<!DOCTYPE svg PUBLIC "-//W3C//DTD SVG 1.1//EN" "http://www.w3.org/Graphics/SVG/1.1/DTD/svg11.dtd">
<svg version="1.1" xmlns="http://www.w3.org/2000/svg" xmlns:xlink="http://www.w3.org/1999/xlink" x="0px" y="0px" viewBox="0 0 1000 1000" enable-background="new 0 0 1000 1000" xml:space="preserve">
<metadata> Svg Vector Icons : http://www.onlinewebfonts.com/icon </metadata>
<g><g transform="translate(0.000000,511.000000) scale(0.100000,-0.100000)"><path d="M6839.5,4990.3c-289.4-60.2-675.8-221.4-1037.1-429.2c-217.5-124.3-604-374.8-710.8-458.3c-38.8-31.1-79.6-56.3-89.3-56.3c-9.7,0-91.3,93.2-180.6,205.9c-370.9,468-718.6,675.8-940,561.3c-310.7-163.1-510.8-561.3-549.6-1097.3l-11.6-169l-167-11.6c-91.3-5.8-229.2-25.3-304.9-44.7l-139.8-33l-112.6,52.4c-615.6,291.3-1161.4,60.2-1365.3-578.7c-64.1-198.1-118.5-526.3-118.5-708.9v-118.5l-99.1-50.5c-238.9-120.4-386.5-332.1-402-578.7c-11.7-198.1,71.9-456.4,213.6-658.4c36.9-52.4,36.9-54.4,0-155.4c-85.4-225.3-71.9-386.5,40.8-504.9l62.1-66l124.3,15.6c128.2,17.5,196.2,56.3,196.2,112.6c0,17.5-31.1,77.7-69.9,135.9c-38.8,56.3-58.3,99-44.7,95.2c25.2-7.8,52.4,31.1,165.1,236.9c38.8,71.9,33,122.3-25.3,205.9c-27.2,40.8-77.7,114.6-108.8,161.2c-91.3,132.1-147.6,289.4-149.5,405.9c0,91.3,7.8,112.6,58.3,159.2c33,31.1,116.5,71.9,205.9,99c223.3,68,233.1,85.4,246.6,437c11.7,308.8,46.6,524.4,120.4,720.5c155.4,409.8,382.6,471.9,839,227.2c89.3-46.6,180.6-85.4,203.9-85.4c23.3,0,108.8,23.3,188.4,50.5c209.7,73.8,419.5,73.8,557.4,1.9c161.2-81.6,213.6-200,238.9-541.8c19.4-238.9,48.5-277.7,238.9-316.6c182.5-38.8,326.3-97.1,411.7-167c68-56.3,73.8-69.9,64.1-135.9c-5.8-38.8-38.8-112.6-73.8-163.1c-248.6-345.7-304.9-456.4-322.4-654.5c-29.1-297.1,157.3-504.9,567.1-637c180.6-58.3,236.9-101,289.4-223.3c54.4-120.4,110.7-165.1,207.8-165.1c89.3,0,184.5,73.8,202,157.3c17.5,79.6-52.4,264.1-139.8,367c-66,75.7-68,85.5-56.3,182.6c31.1,268,151.5,458.3,291.3,458.3c93.2,0,281.6-64.1,438.9-149.5c112.6-60.2,299.1-196.1,559.3-404c159.2-126.2,291.3-73.8,372.9,149.5c184.5,512.7,551.6,945.8,802.1,947.7c29.1,0,110.7-17.5,178.7-40.8c149.6-48.5,314.6-190.3,506.9-437c69.9-89.3,145.7-176.7,169-192.3c62.1-42.7,169-36.9,246.6,15.5c50.5,35,176.7,91.3,202,91.3c1.9,0,0-75.7-3.9-169c-7.8-258.3-62.1-415.6-178.7-532.1c-110.7-110.7-135.9-151.5-135.9-221.4c0-116.5,91.3-203.9,211.7-203.9c122.4,0,347.6,240.8,427.3,458.3c66,176.7,85.4,279.7,85.4,483.6c1.9,238.9-42.7,359.3-174.8,475.8c-120.4,104.9-248.6,134-402,89.3l-112.6-33l-178.7,178.7L8189.2,1916l101,99c157.3,159.3,200,349.6,114.6,516.6c-48.5,95.2-198.1,205.9-423.4,316.6c-209.7,102.9-499.1,207.8-578.7,207.8c-19.4,0-36.9,1.9-36.9,5.8c0,1.9,68,139.8,151.5,304.9s182.6,392.3,219.5,504.9c60.2,188.4,66,223.3,66,448.6c0,233-1.9,248.6-58.3,357.3c-66,130.1-196.1,242.8-339.9,293.3C7286.2,5013.6,6998.7,5023.3,6839.5,4990.3z M7278.4,4570.8c108.7-52.4,145.7-122.4,145.7-281.6c0-235-180.6-650.6-470-1085.6c-213.6-318.5-219.5-332.1-192.2-421.4c25.2-85.4,112.6-153.4,198.1-153.4c27.2,0,85.5,23.3,126.2,50.5c69.9,48.5,81.6,50.5,169,29.1c147.6-33,374.8-130.1,586.5-248.6c106.8-60.2,198.1-112.6,202-114.6c15.5-13.6-87.4-83.5-203.9-143.7c-106.8-54.4-132.1-60.2-223.3-48.5c-135.9,15.5-355.4-29.1-487.5-101c-219.5-118.5-501.1-448.6-648.6-759.3c-31.1-66-64.1-118.5-73.8-118.5c-7.8-1.9-48.6,25.2-89.3,56.3c-40.8,33-165.1,114.6-275.8,182.6c-192.3,116.5-203.9,128.2-279.6,266.1c-124.3,221.4-124.3,215.6,3.9,306.8c176.7,126.2,293.3,161.2,528.2,159.3c198.1-1.9,202,0,258.3,54.4c44.7,46.6,56.3,73.8,56.3,141.8c-1.9,145.7-73.8,202-287.4,221.4c-235,21.4-514.6-50.5-714.7-186.4c-50.5-33-95.2-54.4-102.9-48.5c-5.8,7.8-11.7,83.5-11.7,170.9c2,273.8,77.7,353.5,673.9,691.4c398.1,225.3,512.7,394.2,440.8,648.6c-40.8,145.7-217.5,196.2-332.1,93.2c-54.4-48.6-64.1-69.9-64.1-147.6l-1.9-93.2l-271.9-155.4c-347.6-198.1-600.1-370.9-664.2-456.4c-122.3-155.4-69.9-161.2-450.6,46.6c-186.4,102.9-365.1,190.3-398.1,196.1c-85.4,13.6-188.4-62.1-211.7-155.4c-13.6-56.3-11.7-87.4,13.6-137.9c25.3-56.3,87.4-97.1,431.1-283.5c219.5-120.4,407.8-233,415.6-250.5c9.7-17.5,21.3-83.5,27.2-147.6c15.5-141.8,108.8-473.9,165.1-586.5c23.3-44.7,42.7-91.3,42.7-101c0-11.7-36.9-29.1-81.6-42.7c-283.5-75.7-475.8-299.1-539.9-627.3c-15.5-69.9-33-128.2-42.7-128.2c-33,0-161.2,60.2-196.2,93.2c-101,91.3-77.7,172.8,132.1,456.4c262.2,355.4,268,687.5,15.5,938c-71.9,71.9-332.1,205.9-442.8,229.2c-56.3,11.7-60.2,21.4-91.3,170.9c-40.8,194.2-139.8,403.9-248.6,526.3l-83.5,93.2l11.7,236.9c13.6,266.1,64.1,491.4,141.8,635.1c48.6,91.3,176.7,213.6,221.4,213.6c69.9,0,365.1-361.2,594.3-724.4c102.9-167,170.9-217.5,268-202c35,5.8,149.5,75.8,269.9,167c580.7,437,1132.2,753.5,1512.9,866.2C6956,4621.3,7165.8,4625.2,7278.4,4570.8z"/><path d="M2058.1,2376.2c-77.7-60.2-97.1-157.3-97.1-446.7c0-229.2,36.9-526.3,75.7-629.2c7.8-21.4-62.1-9.7-281.6,48.5c-275.8,71.9-295.2,75.7-359.3,48.6c-137.9-58.3-167-258.3-50.5-345.7c27.2-19.4,240.8-85.4,475.8-149.5c233.1-62.1,429.2-124.3,433.1-135.9c33-99,405.9-590.4,495.2-652.5c68-48.6,178.7-36.9,246.7,23.3c128.2,118.5,543.8,1367.2,543.8,1633.3c0,120.4-79.6,198.1-200,198.1c-135.9,0-174.8-52.4-236.9-326.3c-52.4-229.2-238.9-815.7-287.4-908.9l-27.2-50.5l-95.2,151.5c-118.5,186.4-215.6,396.2-266.1,578.7c-33,110.7-40.8,205.9-44.7,487.5c-3.9,192.3-5.8,361.2-5.8,374.8c-1.9,15.5-27.2,52.4-58.3,83.5C2248.4,2428.7,2133.9,2436.5,2058.1,2376.2z"/><path d="M7492,1387.7c-102.9-48.5-211.7-165.1-264.1-283.5c-60.2-135.9-73.8-462.2-29.1-714.7c40.8-223.3,81.5-295.2,182.5-326.3c99.1-29.1,122.4-17.5,452.5,229.2c466.1,347.6,547.7,442.8,503,580.7c-29.1,89.3-104.9,143.7-196.1,143.7c-62.1,0-93.2-17.5-196.2-108.8c-66-58.3-172.8-145.7-236.9-194.2c-126.2-95.2-147.6-91.3-147.6,31.1s35,198.1,135.9,291.3c87.4,79.6,97.1,99,97.1,170.9C7793.1,1366.4,7641.6,1457.6,7492,1387.7z"/><path d="M323.8-311.6c-77.7-77.7-79.6-99.1-36.9-386.5C415.1-1550.6,854-2385.7,1535.7-3075.2c435-440.9,866.2-749.6,1470.1-1056.5l330.2-167l9.7-200c9.7-186.4,11.7-200,64.1-244.7l54.4-46.6h1532.3h1532.3l54.4,46.6c50.5,44.6,54.4,58.2,64.1,244.7l9.7,198.1l330.2,169c607.9,310.7,1015.7,604,1462.4,1050.7C9170-2360.5,9641.9-1412.7,9727.4-523.3l13.6,139.8l-69.9,69.9l-68,68H4996.5H389.9L323.8-311.6z M9280.7-735c-25.3-161.2-108.8-466.1-178.7-642.8c-200-520.5-477.8-945.8-901.1-1380.8C7736.7-3234.4,7173.5-3619,6554-3881.1c-293.3-124.3-314.6-149.5-314.6-359.3v-141.8H4996.5H3753.5v141.8c0,209.7-21.4,235-314.6,359.3C2308.6-3403.4,1376.5-2519.7,951.1-1525.4c-48.6,112.6-106.8,266.1-130.1,339.9c-44.7,145.7-116.5,454.4-116.5,503c0,25.2,475.8,29.1,4293.9,29.1h4295.9L9280.7-735z"/></g></g>
</svg>